# AST/ASF file generated using VICON BodyLanguage
# -----------------------------------------------
:version 1.10
:name VICON
:units
  mass 1.0
  length 0.45
  angle deg
:documentation
   .ast/.asf automatically generated from VICON data using
   VICON BodyBuilder and BodyLanguage model FoxedUp or BRILLIANT.MOD
:root
   order TX TY TZ RX RY RZ
   axis XYZ
   position 0 0 0  
   orientation 0 0 0 
:bonedata
  begin
     id 1 
     name lhipjoint
     direction 0.671379 -0.66392 0.329334 
     length 2.38647 
     axis 0 0 0  XYZ
  end
  begin
     id 2 
     name lfemur
     direction 0.34202 -0.939693 0  
     length 6.48179  
     axis 0 0 20  XYZ
    dof rx ry rz
    limits (-160.0 20.0)
           (-70.0 70.0)
           (-60.0 70.0)
  end
  begin
     id 3 
     name ltibia
     direction 0.34202 -0.939693 0   
     length 6.86524   
     axis 0 0 20   XYZ
    dof rx
    limits (-10.0 170.0)
  end
  begin
     id 4 
     name lfoot
     direction 0.204886 -0.562919 0.800715   
     length 1.73031   
     axis -90 7.62852e-016 20   XYZ
    dof rx rz
    limits (-45.0 90.0)
           (-70.0 20.0)
  end
  begin
     id 5 
     name ltoes
     direction 1.53548e-011 -4.21841e-011 1   
     length 0.828161   
     axis -90 7.62852e-016 20   XYZ
    dof rx
    limits (-90.0 20.0)
  end
  begin
     id 6 
     name rhipjoint
     direction -0.662732 -0.670855 0.332775   
     length 2.3618  
     axis 0 0 0  XYZ 
  end
  begin
     id 7 
     name rfemur
     direction -0.34202 -0.939693 0   
     length 6.3025   
     axis 0 0 -20   XYZ
    dof rx ry rz
    limits (-160.0 20.0)
           (-70.0 70.0)
           (-70.0 60.0)
  end
  begin
     id 8 
     name rtibia
     direction -0.34202 -0.939693 0   
     length 6.8732   
     axis 0 0 -20   XYZ
    dof rx
    limits (-10.0 170.0)
 end
 begin
     id 9 
     name rfoot
     direction -0.173856 -0.477665 0.861168   
     length 1.54784  
     axis -90 -7.62852e-016 -20   XYZ
    dof rx rz
    limits (-45.0 90.0)
           (-20.0 70.0)
  end
  begin
     id 10 
     name rtoes
     direction -1.53562e-011 -4.21802e-011 1   
     length 0.759618   
     axis -90 -7.62852e-016 -20   XYZ
    dof rx
    limits (-90.0 20.0)
  end
  begin
     id 11 
     name lowerback
     direction -0.0278357 0.999497 -0.0151789   
     length 1.97203   
     axis 0 0 0   XYZ
    dof rx ry rz
    limits (-20.0 45.0)
           (-30.0 30.0)
           (-30.0 30.0)
  end
  begin
     id 12 
     name upperback
     direction -0.00360622 0.997542 0.0699804   
     length 1.94709   
     axis 0 0 0   XYZ
    dof rx ry rz
    limits (-20.0 45.0)
           (-30.0 30.0)
           (-30.0 30.0)
  end
  begin
     id 13 
     name thorax
     direction 0.00907706 0.997048 0.0762461   
     length 1.95722   
     axis 0 0 0   XYZ
    dof rx ry rz
    limits (-20.0 45.0)
           (-30.0 30.0)
           (-30.0 30.0)
  end
  begin
     id 14 
     name lowerneck
     direction -0.0481835 0.99872 -0.0153927   
     length 1.63078   
     axis 0 0 0   XYZ
    dof rx ry rz
    limits (-20.0 45.0)
           (-30.0 30.0)
           (-30.0 30.0)
  end
  begin
     id 15 
     name upperneck
     direction 0.0859716 0.979226 -0.183644   
     length 1.62591   
     axis 0 0 0   XYZ
    dof rx ry rz
    limits (-20.0 45.0)
           (-30.0 30.0)
           (-30.0 30.0)
  end
  begin
     id 16
     name head
     direction 0.0324821 0.997629 -0.0606773  
     length 1.64811  
     axis 0 0 0   XYZ
    dof rx ry rz
    limits (-20.0 45.0)
           (-30.0 30.0)
           (-30.0 30.0)
  end
  begin
     id 17 
     name lclavicle
     direction 0.939609 0.311019 0.142835  
     length 3.70647  
     axis 0 0 0   XYZ
    dof ry rz
    limits (-20.0 10.0)
           (0.0 20.0)
  end
  begin
     id 18 
     name lhumerus
     direction 1 -4.48963e-011 -1.59838e-027   
     length 4.59207   
     axis 180 -30 -90   XYZ
    dof rx ry rz
    limits (-60.0 90.0)
           (-90.0 90.0)
           (-90.0 90.0)
  end
  begin
     id 19
     name lradius
     direction 1 -4.48957e-011 -1.3483e-026   
     length 2.98109   
     axis 180 -30 -90   XYZ
    dof rx
    limits (-10.0 170.0)
  end
  begin
     id 20
     name lwrist
     direction 1 -4.48954e-011 -3.11579e-026   
     length 1.49055   
     axis 2.00652e-014 90 90   XYZ
    dof ry
    limits (-180.0 0.0)
 end
  begin
     id 21 
     name lhand
     direction 1 -4.4911e-011 -6.23158e-026   
     length 0.480203   
     axis 3.97628e-014 90 90   XYZ
    dof rx rz
    limits (-90.0 90.0)
           (-45.0 45.0)
  end
  begin
     id 22 
     name lfingers
     direction 1 -4.48893e-011 -1.24632e-025   
     length 0.387152   
     axis 7.95256e-014 90 90   XYZ
    dof rx
    limits (0.0 90.0)
  end
  begin
     id 23
     name lthumb
     direction 0.707107 -6.35013e-011 0.707107   
     length 0.555875   
     axis -90 45 2.85299e-015   XYZ
    dof rx rz
    limits (-45.0 45.0)
           (-45.0 45.0)
  end
  begin
     id 24 
     name rclavicle
     direction -0.950396 0.30392 0.0661859   
     length 3.70894  
     axis 0 0 0   XYZ 
    dof ry rz
    limits (-10.0 20.0)
           (-20.0 0.0)
  end
  begin
     id 25 
     name rhumerus
     direction -1 -4.48957e-011 -2.96677e-027  
     length 4.76508   
     axis 180 30 90   XYZ
    dof rx ry rz
    limits (-90.0 60.0)
           (-90.0 90.0)
           (-90.0 90.0)
  end
  begin
     id 26 
     name rradius
     direction -1 -4.48974e-011 -1.44501e-026   
     length 2.78902   
     axis 180 30 90   XYZ
    dof rx
    limits (-10.0 170.0)
  end
  begin
     id 27 
     name rwrist
     direction -1 -4.48978e-011 -3.11579e-026   
     length 1.39451   
     axis 2.00652e-014 -90 -90   XYZ
    dof ry
    limits (-180.0 0.0)
  end
  begin
     id 28
     name rhand
     direction -1 -4.48956e-011 -6.23158e-026   
     length 0.721303   
     axis 3.97628e-014 -90 -90   XYZ
    dof rx rz
    limits (-90.0 90.0)
           (-45.0 45.0)
  end
  begin
     id 29
     name rfingers
     direction -1 -4.4899e-011 -1.24632e-025   
     length 0.581533   
     axis 7.95256e-014 -90 -90   XYZ
    dof rx
    limits (0.0 90.0)
  end
  begin
     id 30
     name rthumb
     direction -0.707107 -6.34911e-011 0.707107   
     length 0.834968   
     axis -90 -45 -2.85299e-015   XYZ
    dof rx rz
    limits (-45.0 45.0)
           (-45.0 45.0)
  end
:hierarchy
  begin
    root lhipjoint rhipjoint lowerback
    lhipjoint lfemur
    lfemur ltibia
    ltibia lfoot
    lfoot ltoes
    rhipjoint rfemur
    rfemur rtibia
    rtibia rfoot
    rfoot rtoes
    lowerback upperback
    upperback thorax
    thorax lowerneck lclavicle rclavicle
    lowerneck upperneck
    upperneck head
    lclavicle lhumerus
    lhumerus lradius
    lradius lwrist
    lwrist lhand lthumb
    lhand lfingers
    rclavicle rhumerus
    rhumerus rradius
    rradius rwrist
    rwrist rhand rthumb
    rhand rfingers
  end

#!OML:ASF I:\salsa\salsa 7_09\Patient 1\Session 1\dancerfemale.ASF
:FULLY-SPECIFIED
:DEGREES
212
root 3.14244 15.3679 -0.0524044 -356.893 -33.8146 371
lowerback 4.32784 10.7468 -4.3479
upperback -7.44437 13.8555 -2.72359
thorax -10.7119 6.91109 -2.4866
lowerneck -3.59276 9.96615 -6.30605
upperneck 6.5573 13.6006 1.91758
head 2.11945 6.68801 1.99052
rclavicle -1.67476e-013 -1.74931e-014
rhumerus -30.7297 -4.27648 -73.1866
rradius 52.578
rwrist 13.9947
rhand -3.36797 76.4427
rfingers 7.12502
rthumb 22.3608 47.7168
lclavicle -1.67476e-013 -1.74931e-014
lhumerus -55.2709 37.0146 30.2876
lradius 122.323
lwrist 51.287
lhand 2.81094 52.1727
lfingers 7.12502
lthumb 28.2799 80.058
rfemur -35.9831 0.971401 -0.610632
rtibia 67.1649
rfoot -11.8192 -6.94329
rtoes -34.3082
lfemur -24.7143 -2.92773 -36.5325
ltibia 52.6032
lfoot -10.723 -23.9454
ltoes 15.3478
213
root 2.77419 15.4506 0.0150126 -356.3 -29.6671 370.829
lowerback 4.47888 10.5559 -4.60036
upperback -7.60556 13.5518 -2.91157
thorax -10.9933 6.76951 -2.56884
lowerneck -3.10691 9.82364 -5.75493
upperneck 6.55343 13.3775 1.48423
head 2.10724 6.57729 1.73721
rclavicle -1.07443e-013 -5.80451e-014
rhumerus -32.3047 -3.92898 -74.4058
rradius 52.5841
rwrist 14.7977
rhand -4.25007 75.4345
rfingers 7.12502
rthumb 21.5138 46.6093
lclavicle -1.07443e-013 -5.80451e-014
lhumerus -55.7617 36.6456 31.7372
lradius 122.068
lwrist 51.0111
lhand -0.516276 52.0951
lfingers 7.12502
lthumb 25.0958 80.466
rfemur -35.712 2.99741 -3.04483
rtibia 62.7631
rfoot -13.1504 -7.04151
rtoes -35.4966
lfemur -22.9093 -5.06003 -35.0492
ltibia 51.0203
lfoot -9.43901 -25.3079
ltoes 15.2513
214
root 2.41471 15.5402 0.0966629 -355.123 -25.0964 370.646
lowerback 4.14838 10.2256 -4.58011
upperback -7.93712 13.0982 -3.238
thorax -11.0773 6.54176 -2.822
lowerneck -2.95089 9.49122 -5.45963
upperneck 6.88023 12.9277 1.33073
head 2.23358 6.34923 1.64549
rclavicle -6.34123e-014 2.62396e-014
rhumerus -33.9192 -3.91122 -75.7787
rradius 52.3616
rwrist 15.6178
rhand -5.20193 73.3522
rfingers 7.12502
rthumb 20.5994 44.4252
lclavicle -6.34123e-014 2.62396e-014
lhumerus -56.0001 36.2786 33.5129
lradius 121.596
lwrist 49.9756
lhand -3.69446 52.2408
lfingers 7.12502
lthumb 22.0473 81.004
rfemur -35.2865 4.21362 -5.41435
rtibia 57.5326
rfoot -13.0002 -8.71818
rtoes -34.3832
lfemur -21.8019 -7.733 -33.4032
ltibia 49.2554
lfoot -7.87583 -26.5551
ltoes 14.8088
215
root 2.05223 15.6512 0.193684 -353.682 -20.1536 370.296
lowerback 3.5597 9.84618 -4.27334
upperback -8.35095 12.6175 -3.59014
thorax -11.0318 6.28469 -3.20074
lowerneck -2.90779 9.0857 -5.54919
upperneck 7.32286 12.3802 1.61746
head 2.36868 6.0754 1.75949
rclavicle 6.64935e-014 1.51076e-014
rhumerus -35.634 -4.2302 -77.2591
rradius 52.0586
rwrist 16.1411
rhand -5.73301 71.5092
rfingers 7.12502
rthumb 20.089 42.5278
lclavicle 6.64935e-014 1.51076e-014
lhumerus -56.0272 35.6944 35.6307
lradius 120.828
lwrist 47.907
lhand -6.0231 52.9014
lfingers 7.12502
lthumb 19.8102 81.9119
rfemur -34.2943 5.05295 -7.32897
rtibia 51.7012
rfoot -13.5461 -8.79697
rtoes -36.345
lfemur -21.0115 -10.5125 -31.3593
ltibia 47.3218
lfoot -6.20067 -27.7634
ltoes 13.8987
216
root 1.6594 15.7729 0.301923 -352.642 -15.4581 369.776
lowerback 3.16771 9.61035 -4.00809
upperback -8.61913 12.3279 -3.83174
thorax -10.9833 6.12437 -3.49923
lowerneck -2.83366 8.63031 -5.59727
upperneck 7.67122 11.7543 1.95806
head 2.47189 5.76801 1.87723
rclavicle 5.1684e-014 -1.43125e-014
rhumerus -37.2243 -4.56231 -79.0544
rradius 51.7418
rwrist 16.1569
rhand -6.59472 69.6815
rfingers 7.12502
rthumb 19.2606 40.6153
lclavicle 5.1684e-014 -1.43125e-014
lhumerus -55.8327 34.924 37.973
lradius 119.824
lwrist 45.3949
lhand -8.75765 54.215
lfingers 7.12502
lthumb 17.1797 83.4755
rfemur -32.3537 7.25012 -8.89098
rtibia 45.5715
rfoot -13.745 -9.10127
rtoes -36.6687
lfemur -19.8684 -12.496 -28.9494
ltibia 45.2633
lfoot -4.59513 -28.9727
ltoes 13.2521
217
root 1.2439 15.884 0.420037 -351.901 -10.8208 369.178
lowerback 2.86874 9.35756 -3.82533
upperback -8.71083 12.0185 -3.91867
thorax -10.8486 5.96783 -3.59171
lowerneck -2.78621 8.20977 -5.48263
upperneck 7.86345 11.1884 1.95961
head 2.55678 5.48661 1.85792
rclavicle -2.24627e-014 3.57812e-015
rhumerus -38.4409 -4.89024 -80.9894
rradius 51.3459
rwrist 16.2219
rhand -7.48428 67.5159
rfingers 7.12502
rthumb 18.405 38.3666
lclavicle -2.24627e-014 3.57812e-015
lhumerus -55.7702 34.2776 40.4429
lradius 118.899
lwrist 42.408
lhand -13.0002 55.4741
lfingers 7.12502
lthumb 13.093 85.0431
rfemur -30.006 10.4862 -10.1818
rtibia 39.637
rfoot -14.0399 -8.67574
rtoes -32.0529
lfemur -18.6041 -14.0989 -26.2974
ltibia 43.1628
lfoot -3.21683 -30.0325
ltoes 12.5297
218
root 0.816924 15.983 0.55038 -351.244 -6.03294 368.432
lowerback 2.58059 9.05186 -3.48759
upperback -8.78946 11.6539 -3.95411
thorax -10.6864 5.7751 -3.7048
lowerneck -2.78429 7.80308 -5.58664
upperneck 8.06758 10.6375 2.2003
head 2.62873 5.21494 1.95211
rclavicle 6.42074e-014 -3.97569e-016
rhumerus -39.3741 -5.73327 -82.8361
rradius 50.4319
rwrist 16.8545
rhand -7.88336 65.3377
rfingers 7.12502
rthumb 18.0211 36.1525
lclavicle 6.42074e-014 -3.97569e-016
lhumerus -55.9581 33.5956 42.8325
lradius 117.984
lwrist 38.4871
lhand -16.8755 56.0657
lfingers 7.12502
lthumb 9.35544 85.8381
rfemur -27.609 12.8499 -10.4214
rtibia 34.304
rfoot -13.6805 -7.14875
rtoes -30.3538
lfemur -17.5822 -15.8212 -23.3159
ltibia 41.1797
lfoot -2.11256 -30.8745
ltoes 11.5231
219
root 0.374059 16.0593 0.685895 -350.77 -1.32845 367.853
lowerback 2.4807 8.68137 -3.4282
upperback -8.83927 11.1715 -3.95399
thorax -10.6769 5.54189 -3.66521
lowerneck -2.92563 7.47166 -6.2631
upperneck 8.35865 10.1798 3.07741
head 2.69424 4.99449 2.35977
rclavicle -6.39962e-014 1.13307e-014
rhumerus -40.0477 -5.78239 -85.2073
rradius 49.4476
rwrist 17.3807
rhand -8.97928 62.3963
rfingers 7.12502
rthumb 16.9664 33.1173
lclavicle -6.39962e-014 1.13307e-014
lhumerus -56.6022 33.1534 44.773
lradius 117.047
lwrist 34.1719
lhand -18.7605 56.6096
lfingers 7.12502
lthumb 7.5363 86.4554
rfemur -24.9991 13.6355 -9.76395
rtibia 29.7813
rfoot -12.3186 -6.39175
rtoes -35.9775
lfemur -16.9296 -17.4054 -20.4111
ltibia 39.6055
lfoot -1.14066 -31.5571
ltoes 10.5319
220
root -0.0823337 16.1194 0.823609 -350.283 3.37575 367.309
lowerback 2.47048 8.37184 -3.52997
upperback -8.93165 10.7447 -4.0691
thorax -10.7792 5.34013 -3.69482
lowerneck -2.93064 7.02739 -6.62425
upperneck 8.36156 9.54046 3.95431
head 2.67095 4.69756 2.70047
rclavicle -1.47175e-013 -3.13086e-015
rhumerus -40.6568 -5.58006 -87.8076
rradius 48.8741
rwrist 17.4576
rhand -9.62675 59.6699
rfingers 7.12502
rthumb 16.343 30.3385
lclavicle -1.47175e-013 -3.13086e-015
lhumerus -57.1204 32.4872 46.6239
lradius 116.247
lwrist 30.1467
lhand -19.6317 57.4393
lfingers 7.12502
lthumb 6.69533 87.3134
rfemur -22.7163 13.1328 -8.25526
rtibia 26.5225
rfoot -9.81059 -2.93612
rtoes -41.5501
lfemur -16.982 -18.7138 -17.3908
ltibia 38.6005
lfoot -0.229938 -31.9626
ltoes 9.53212
221
root -0.547372 16.1633 0.967661 -349.896 8.30213 366.159
lowerback 2.0629 8.57053 -3.51271
upperback -8.84453 11.044 -4.14828
thorax -10.4126 5.49917 -3.73385
lowerneck -2.72445 5.93825 -6.04615
upperneck 7.82005 8.01223 4.26365
head 2.54875 3.96963 2.65274
rclavicle -5.72997e-014 1.78906e-015
rhumerus -40.989 -6.97414 -89.4757
rradius 48.7643
rwrist 17.9502
rhand -10.32 57.2994
rfingers 7.12502
rthumb 15.6755 27.9144
lclavicle -5.72997e-014 1.78906e-015
lhumerus -56.154 30.753 50.0056
lradius 115.473
lwrist 26.6095
lhand -20.2849 58.041
lfingers 7.12502
lthumb 6.06479 87.9342
rfemur -20.6062 12.2378 -5.38162
rtibia 24.6378
rfoot -7.56062 0.759729
rtoes -37.7209
lfemur -17.6881 -20.6468 -13.5955
ltibia 38.2947
lfoot -0.162395 -31.0129
ltoes 7.8516
222
root -1.01444 16.2052 1.12203 -349.64 13.4982 364.745
lowerback 1.41894 8.69407 -3.04356
upperback -8.64388 11.2804 -4.29859
thorax -9.67133 5.60177 -3.99913
lowerneck -2.26046 4.76873 -5.4072
upperneck 6.75581 6.36737 4.68481
head 2.20824 3.18469 2.60195
rclavicle 1.78857e-013 -2.54444e-014
rhumerus -40.737 -8.32343 -91.3358
rradius 48.703
rwrist 18.5022
rhand -11.5655 55.6796
rfingers 7.12502
rthumb 14.4757 26.2045
lclavicle 1.78857e-013 -2.54444e-014
lhumerus -55.1027 28.9402 52.9606
lradius 114.706
lwrist 23.6327
lhand -20.8111 57.9502
lfingers 7.12502
lthumb 5.55669 87.8574
rfemur -18.0174 11.648 -1.96322
rtibia 24.1437
rfoot -8.12446 -0.402183
rtoes -45.9644
lfemur -19.0305 -23.5612 -9.62271
ltibia 38.9043
lfoot -2.13421 -28.3232
ltoes 2.14006
